<?xml version="1.0" standalone="no"?>
<!DOCTYPE svg PUBLIC "-//W3C//DTD SVG 20010904//EN"
 "http://www.w3.org/TR/2001/REC-SVG-20010904/DTD/svg10.dtd">
<svg version="1.0" xmlns="http://www.w3.org/2000/svg"
 width="3514.000000pt" height="1261.000000pt" viewBox="0 0 3514.000000 1261.000000"
 preserveAspectRatio="xMidYMid meet">
<metadata>
Created by potrace 1.16, written by Peter Selinger 2001-2019
</metadata>
<g transform="translate(0.000000,1261.000000) scale(0.100000,-0.100000)"
fill="#000000" stroke="none">
<path d="M9155 10869 c-545 -47 -994 -208 -1475 -530 -503 -336 -970 -823
-1280 -1334 -23 -38 -43 -71 -44 -72 -1 -2 -65 7 -142 19 -120 19 -180 22
-434 22 -332 0 -450 -13 -715 -78 -1612 -400 -2592 -2036 -2180 -3641 65 -254
171 -516 295 -730 l69 -120 -245 -245 -244 -245 70 -70 70 -70 -842 -842 -843
-843 315 -315 c173 -173 319 -315 325 -315 5 0 387 377 847 837 l838 838 67
-68 68 -67 242 242 241 241 94 -56 c416 -247 854 -383 1343 -416 91 -7 741
-11 1663 -11 l1512 0 0 1568 c0 994 -4 1609 -10 1682 -35 384 -128 717 -300
1066 -236 479 -591 882 -1035 1173 -72 47 -152 97 -178 111 -26 14 -47 27 -47
30 0 9 363 198 515 268 496 229 928 350 1365 382 222 17 457 0 757 -55 256
-47 438 -104 767 -239 88 -36 178 -68 201 -72 93 -13 161 53 137 135 -28 92
-167 235 -339 348 -232 153 -654 302 -979 347 -547 76 -1165 -44 -1754 -339
-318 -159 -581 -338 -826 -561 l-101 -92 -101 37 c-56 20 -104 40 -108 44 -9
9 432 447 571 566 436 373 883 640 1315 784 218 73 546 142 840 179 108 13
470 17 795 8 153 -4 185 -2 217 12 72 32 101 128 57 189 -71 101 -355 226
-614 272 -203 37 -514 47 -760 26z m-3045 -2814 c378 -63 722 -223 1021 -474
406 -340 674 -851 729 -1390 6 -64 10 -511 10 -1198 l0 -1094 -1132 4 c-1243
4 -1210 3 -1462 66 -774 197 -1383 835 -1541 1613 -86 427 -38 858 141 1261
124 280 349 574 589 769 303 245 693 410 1085 458 110 13 448 4 560 -15z"/>
<path d="M6791 6959 c-130 -25 -258 -124 -316 -243 -127 -260 -5 -555 266
-646 53 -18 81 -21 165 -18 93 3 107 6 178 41 100 50 168 118 215 216 31 66
36 87 39 169 5 116 -15 198 -68 280 -102 158 -292 238 -479 201z"/>
<path d="M12756 7532 c-6 -10 -1316 -3587 -1323 -3614 -5 -17 28 -18 598 -18
l604 0 89 275 90 275 601 0 601 0 89 -275 89 -275 603 0 c476 0 603 3 603 13
0 6 -296 824 -658 1817 l-658 1805 -661 3 c-364 1 -664 -2 -667 -6z m818
-1719 c86 -265 156 -484 156 -487 0 -3 -142 -6 -315 -6 -173 0 -315 3 -315 7
0 11 313 973 316 970 1 -1 72 -219 158 -484z"/>
<path d="M15650 5720 l0 -1820 575 0 575 0 2 902 3 902 595 -902 595 -902 573
0 572 0 0 1820 0 1820 -575 0 -575 0 -2 -912 -3 -912 -591 909 -590 910 -577
3 -577 2 0 -1820z"/>
<path d="M19440 7085 l0 -455 475 0 475 0 0 -1365 0 -1365 575 0 575 0 0 1365
0 1365 480 0 480 0 0 455 0 455 -1530 0 -1530 0 0 -455z"/>
<path d="M24020 5690 l0 -1790 990 0 990 0 0 245 0 245 -695 0 -695 0 0 540 0
540 615 0 615 0 0 245 0 245 -615 0 -615 0 0 520 0 520 695 0 695 0 0 240 0
240 -990 0 -990 0 0 -1790z"/>
<path d="M26700 5690 l0 -1790 300 0 300 0 2 1204 3 1204 334 -746 c184 -411
426 -953 539 -1204 l205 -458 206 0 206 0 535 1202 535 1202 3 -1202 2 -1202
300 0 300 0 0 1790 0 1790 -318 0 -319 0 -619 -1389 c-340 -764 -621 -1388
-624 -1386 -3 2 -285 627 -625 1389 l-620 1386 -322 0 -323 0 0 -1790z"/>
<path d="M31230 5691 l0 -1791 295 0 295 0 0 715 0 715 218 0 218 0 410 -712
410 -713 352 -3 c245 -1 352 1 352 8 0 6 -194 336 -431 732 -236 397 -431 726
-432 730 -1 5 36 21 83 37 368 120 600 363 697 730 23 84 26 117 26 261 0 181
-10 245 -63 392 -45 124 -119 239 -219 339 -169 169 -367 266 -656 321 -103
20 -153 21 -832 25 l-723 4 0 -1790z m1479 1270 c111 -33 178 -70 247 -133
111 -104 157 -227 158 -418 1 -132 -12 -194 -61 -298 -48 -102 -124 -177 -233
-230 -137 -67 -183 -72 -620 -72 l-380 0 0 591 0 591 408 -4 c385 -4 411 -6
481 -27z"/>
</g>
</svg>
