<?xml version="1.0" encoding="UTF-8"?>
<svg version="1.1" viewBox="0 0 300 230" xmlns="http://www.w3.org/2000/svg" xmlns:cc="http://creativecommons.org/ns#" xmlns:dc="http://purl.org/dc/elements/1.1/" xmlns:rdf="http://www.w3.org/1999/02/22-rdf-syntax-ns#">
<metadata>
<rdf:RDF>
<cc:Work rdf:about="">
<dc:format>image/svg+xml</dc:format>
<dc:type rdf:resource="http://purl.org/dc/dcmitype/StillImage"/>
</cc:Work>
</rdf:RDF>
</metadata>
<defs>
<style>.cls-1{fill:none;}.cls-2{isolation:isolate;}.cls-11,.cls-3{opacity:0.07;}.cls-4{fill:#f4f4f4;}.cls-5{fill:#95dbb6;}.cls-6,.cls-8{fill:#cae2ff;}.cls-10,.cls-7{fill:#0050ff;}.cls-16,.cls-7{opacity:0.4;}.cls-8{opacity:0.3;}.cls-18,.cls-9{fill:#fff;}.cls-11{mix-blend-mode:multiply;fill:url(#c);}.cls-12{fill:#2dc27a;}.cls-13{fill:#ccf2dd;}.cls-14{fill:#f7c779;}.cls-15{clip-path:url(#a);}.cls-16{fill:url(#b);}.cls-17{fill:#c68400;}.cls-18{opacity:0.1;}</style>
<linearGradient id="c" x1="132.95" x2="132.95" y1="216.75" y2="188.08" gradientUnits="userSpaceOnUse">
<stop stop-color="#081f40" stop-opacity="0" offset="0"/>
<stop stop-color="#081f40" stop-opacity=".9" offset="1"/>
</linearGradient>
<clipPath id="a">
<path class="cls-1" d="m150.12 47.25c-0.45-0.34-9.57-7.2-12.68-16.43a7.38 7.38 0 0 1-0.29-2.34c0-4.46 3-8.07 6.78-8.07a6.44 6.44 0 0 1 4.54 2.07c1.64 1.64 1.84 2.52 2.24 2.52s0.59-0.88 2.24-2.52a6.45 6.45 0 0 1 4.54-2.08c3.74 0 6.78 3.61 6.78 8.07a7.39 7.39 0 0 1-0.29 2.34c-3.1 9.23-12.23 16.1-12.68 16.43s-0.61 0.44-1.18 0.01z"/>
</clipPath>
<linearGradient id="b" x1="2042.2" x2="2064.4" y1="1457.4" y2="1457.4" gradientTransform="translate(-2364.6 -152.53) rotate(-31.11)" gradientUnits="userSpaceOnUse">
<stop stop-color="#f7c779" offset="0"/>
<stop stop-color="#c68400" stop-opacity="0" offset="1"/>
</linearGradient>
</defs>
<title>Artboard 6 copy 2</title>
<g class="cls-2">
<g data-name="Layer 1">
<path class="cls-3" d="M262.06,102H248.42a28.42,28.42,0,0,0-7-56H215.81c0-.1,0,0-.05,0H197.12a8,8,0,0,1,0-16h14.44a12.1,12.1,0,0,0-1.92-24h-128a11.86,11.86,0,0,0-6.18,22H32.12A20.65,20.65,0,0,0,11.75,48.63C11.75,58.81,19.33,67,29.13,69h31.1A9.66,9.66,0,0,1,70,78.41v0A9.79,9.79,0,0,1,60.23,88H56.84s.06-.06.1,0H44.36a41.5,41.5,0,1,0,0,83H185.6a35,35,0,0,0,5.22,0h71.24a34.5,34.5,0,1,0,0-69Z"/>
<path class="cls-4" d="m17.83 29.76h0.05-0.05-0.05z"/>
<polygon class="cls-4" points="7.71 74.28 7.7 74.28 7.69 74.27 7.6 74.28 7.61 74.29 7.71 74.28"/>
<ellipse class="cls-4" transform="translate(-55.61 34.67) rotate(-52.05)" cx="7.7" cy="74.28" ry=".01"/>
<rect class="cls-5" x="36.26" y="141.23" width="222.21" height="81.8" rx="40.9" ry="40.9"/>
<path class="cls-3" d="m276.76 136.5s0 0 0 0 0 0 0 0z"/>
<rect class="cls-6" x="97.07" y="70.25" width="101.08" height="123.5" rx="5.68" ry="5.68"/>
<rect class="cls-7" x="127.81" y="160.56" width="39.59" height="39.59" rx="3.57" ry="3.57"/>
<rect class="cls-5" x="91.11" y="188.16" width="111.89" height="26"/>
<rect class="cls-8" x="146.13" y="160.83" width="2.94" height="27.33"/>
<rect class="cls-7" x="110.71" y="91" width="12.59" height="15" rx="1.42" ry="1.42"/>
<rect class="cls-7" x="130.85" y="91" width="12.59" height="15" rx="1.42" ry="1.42"/>
<rect class="cls-7" x="151" y="91" width="12.59" height="15" rx="1.42" ry="1.42"/>
<rect class="cls-7" x="171.14" y="91" width="12.59" height="15" rx="1.42" ry="1.42"/>
<rect class="cls-7" x="110.71" y="113.83" width="12.59" height="15" rx="1.42" ry="1.42"/>
<rect class="cls-7" x="130.85" y="113.83" width="12.59" height="15" rx="1.42" ry="1.42"/>
<rect class="cls-7" x="151" y="113.83" width="12.59" height="15" rx="1.42" ry="1.42"/>
<rect class="cls-7" x="171.14" y="113.83" width="12.59" height="15" rx="1.42" ry="1.42"/>
<rect class="cls-7" x="110.71" y="135.22" width="12.59" height="15" rx="1.42" ry="1.42"/>
<rect class="cls-7" x="130.85" y="135.22" width="12.59" height="15" rx="1.42" ry="1.42"/>
<rect class="cls-7" x="151" y="135.22" width="12.59" height="15" rx="1.42" ry="1.42"/>
<rect class="cls-7" x="171.14" y="135.22" width="12.59" height="15" rx="1.42" ry="1.42"/>
<rect class="cls-9" x="131.07" y="59.63" width="36.02" height="21.33" rx="4.06" ry="4.06"/>
<path class="cls-10" d="m137 65.31h3.32l2 6.9 1.4-6.9h2.51l-2.11 10h-3.31l-2.08-6.89-1.38 6.89h-2.51z"/>
<path class="cls-10" d="M147.25,65.31h2.67l-.78,3.81h3.15l.78-3.81h2.67l-2.07,10H151l.88-4.27h-3.15l-.88,4.27h-2.67Z"/>
<path class="cls-10" d="M162.75,67.57a5,5,0,0,0-2.2-.46c-1.06,0-1.91.16-1.91,1,0,1.41,3.87.88,3.87,3.91,0,2.75-2.55,3.47-4.86,3.47a11.14,11.14,0,0,1-3.08-.51l.63-2a5.19,5.19,0,0,0,2.45.57c.83,0,2.13-.16,2.13-1.18,0-1.6-3.87-1-3.87-3.81,0-2.57,2.25-3.34,4.44-3.34a8.09,8.09,0,0,1,3.05.44Z"/>
<path class="cls-11" d="m195.49 188.11h-95.87 1.26c-3.89 0-8.2 1-13.19 6l-19.69 19.64h107.54l19.46-19.48c3.67-3.66 3.84-5.95 0.49-6.16z"/>
<path class="cls-12" d="m74.9 194.73a19.52 19.52 0 0 1 34.58 0"/>
<path class="cls-13" d="m59.89 197.56a12.65 12.65 0 0 1 22.41 0"/>
<path class="cls-14" d="m150.12 47.25c-0.45-0.34-9.57-7.2-12.68-16.43a7.38 7.38 0 0 1-0.29-2.34c0-4.46 3-8.07 6.78-8.07a6.44 6.44 0 0 1 4.54 2.07c1.64 1.64 1.84 2.52 2.24 2.52s0.59-0.88 2.24-2.52a6.45 6.45 0 0 1 4.54-2.08c3.74 0 6.78 3.61 6.78 8.07a7.39 7.39 0 0 1-0.29 2.34c-3.1 9.23-12.23 16.1-12.68 16.43s-0.61 0.44-1.18 0.01z"/>
<g class="cls-15" clip-path="url(#a)">
<path class="cls-16" d="m147.28 33.86a16.1 16.1 0 0 1 0.91-18 16.11 16.11 0 1 0 15.42 25.55 16.1 16.1 0 0 1-16.33-7.55z"/>
</g>
<rect class="cls-17" x="220.92" y="168.65" width="3.51" height="32" rx="1.5" ry="1.5"/>
<path class="cls-12" d="m194 205.17a22.85 22.85 0 0 1 40.49 0"/>
<path class="cls-13" d="m217.48 208.49a14.81 14.81 0 0 1 26.24 0"/>
<path class="cls-12" d="m237.3 153.69c0 19.7-6.42 27.31-14.34 27.31s-14.34-5.46-14.34-27.31c0-15.08 9.56-27.31 14.34-27.31 3.81 0.01 14.34 12.23 14.34 27.31z"/>
<rect class="cls-17" x="71.75" y="145.62" width="3" height="27.34" rx="1.5" ry="1.5"/>
<path class="cls-12" d="m85.75 132.84c0 16.83-5.48 23.33-12.25 23.33s-12.25-4.67-12.25-23.33c0-12.89 8.17-23.33 12.25-23.33 3.25 0 12.25 10.49 12.25 23.33z"/>
<path class="cls-12" d="m63.45 174.12a10.81 10.81 0 0 1 19.15 0"/>
<rect class="cls-9" x="123.3" y="158.29" width="47.84" height="5.87" rx="2.94" ry="2.94"/>
<polygon class="cls-18" points="127.79 188.36 152.37 164.19 128 163.99"/>
<polygon class="cls-18" points="109.55 106.06 126.28 89.6 109.69 89.46"/>
<polygon class="cls-18" points="128.78 106.06 145.52 89.6 128.92 89.46"/>
<polygon class="cls-18" points="148.93 106.06 165.66 89.6 149.07 89.46"/>
<polygon class="cls-18" points="167.4 106.06 184.14 89.6 167.54 89.46"/>
<polygon class="cls-18" points="109.77 128.64 126.51 112.19 109.91 112.04"/>
<polygon class="cls-18" points="128.79 129.63 145.53 113.18 128.93 113.03"/>
<polygon class="cls-18" points="128.79 151.02 145.53 134.56 128.93 134.42"/>
<polygon class="cls-18" points="109.55 151.02 126.28 134.56 109.69 134.42"/>
<polygon class="cls-18" points="146.79 129.63 163.53 113.18 146.93 113.03"/>
</g>
</g>
</svg>
